<?xml version="1.0" standalone="no"?>
<!DOCTYPE svg PUBLIC "-//W3C//DTD SVG 20010904//EN"
 "http://www.w3.org/TR/2001/REC-SVG-20010904/DTD/svg10.dtd">
<svg version="1.0" xmlns="http://www.w3.org/2000/svg"
 width="1024.000000pt" height="1024.000000pt" viewBox="0 0 1024.000000 1024.000000"
 preserveAspectRatio="xMidYMid meet">
<metadata>
Created by potrace 1.11, written by Peter Selinger 2001-2013
</metadata>
<g transform="translate(0.000000,1024.000000) scale(0.100000,-0.100000)"
fill="#000000" stroke="none">
<path d="M4969 9640 c-37 -63 -929 -1609 -1983 -3434 -1054 -1825 -1915 -3320
-1914 -3322 3 -2 3948 2273 3961 2285 4 4 6 1037 5 2297 l-3 2289 -66 -115z"/>
<path d="M5202 7461 l3 -2293 1980 -1143 c1089 -629 1981 -1142 1983 -1141 3
3 -3946 6847 -3959 6861 -5 5 -8 -961 -7 -2284z"/>
<path d="M3130 3877 l-1975 -1142 1983 -3 c1090 -1 2874 -1 3964 0 l1983 3
-1974 1140 c-1086 627 -1982 1141 -1990 1142 -9 1 -905 -512 -1991 -1140z"/>
</g>
</svg>
